<?xml version="1.0" encoding="utf-8"?>
<!-- Generator: Adobe Illustrator 24.3.0, SVG Export Plug-In . SVG Version: 6.00 Build 0)  -->
<svg version="1.1" id="Layer_1" xmlns="http://www.w3.org/2000/svg" xmlns:xlink="http://www.w3.org/1999/xlink" x="0px" y="0px"
	 viewBox="0 0 180 180" enable-background="new 0 0 180 180" xml:space="preserve">
<g>
	<g id="XMLID_469_">
		<path fill="#FF916E" d="M154.623,89.999c0,35.69-28.934,64.623-64.623,64.623c-35.689,0-64.622-28.933-64.622-64.623
			C25.377,54.31,54.31,25.378,90,25.378C125.689,25.378,154.623,54.31,154.623,89.999z"/>
	</g>
	<g id="XMLID_709_">
		<g id="XMLID_467_">
			<path fill-rule="evenodd" clip-rule="evenodd" fill="#CCCBC9" d="M125.21,134.929c0-0.017-0.002-0.033-0.002-0.05
				c0-3.689,4.572-6.679,10.214-6.679c5.641,0,10.213,2.99,10.213,6.679c0,0.017-0.001,0.033-0.001,0.05H125.21z"/>
		</g>
		<g id="XMLID_465_">
			<g id="XMLID_466_">
				<polygon fill="#FFFFFF" points="135.993,127.232 131.213,92.625 113.374,82.705 96.648,87.345 96.978,88.652 113.215,84.147 
					130.031,93.5 134.716,127.426 				"/>
			</g>
		</g>
		<g id="XMLID_464_">
			<path fill-rule="evenodd" clip-rule="evenodd" fill="#333333" d="M129.024,93.875c0.236,0.882,1.144,1.406,2.026,1.17
				c0.883-0.237,1.406-1.144,1.171-2.026c-0.236-0.883-1.144-1.406-2.027-1.17C129.311,92.085,128.788,92.993,129.024,93.875z"/>
		</g>
		<g id="XMLID_463_">
			<path fill-rule="evenodd" clip-rule="evenodd" fill="#333333" d="M111.697,84.696c0.236,0.883,1.144,1.406,2.026,1.17
				c0.882-0.236,1.406-1.145,1.17-2.026c-0.237-0.883-1.145-1.407-2.026-1.17C111.984,82.906,111.46,83.812,111.697,84.696z"/>
		</g>
		<g id="XMLID_460_">
			<path fill-rule="evenodd" clip-rule="evenodd" fill="#333333" d="M95.215,89.052c0.236,0.882,1.145,1.406,2.025,1.17
				c0.884-0.237,1.407-1.144,1.17-2.027c-0.236-0.883-1.142-1.407-2.025-1.17C95.502,87.261,94.979,88.168,95.215,89.052z"/>
		</g>
		<g id="XMLID_457_">
			<path fill="#FFDB76" d="M87.187,100.114c0.112-5.543,4.431-9.993,9.733-9.979c5.303,0.015,9.6,4.488,9.684,10.031L87.187,100.114
				z"/>
		</g>
		<g id="XMLID_456_">
			<path fill-rule="evenodd" clip-rule="evenodd" fill="#333333" d="M134.01,127.463c0.236,0.882,1.143,1.406,2.026,1.17
				c0.883-0.236,1.406-1.143,1.17-2.027c-0.236-0.883-1.143-1.406-2.026-1.17C134.297,125.672,133.773,126.58,134.01,127.463z"/>
		</g>
		<linearGradient id="SVGID_1_" gradientUnits="userSpaceOnUse" x1="96.896" y1="100.2373" x2="96.896" y2="122.4453">
			<stop  offset="0" style="stop-color:#FFFFFF"/>
			<stop  offset="1" style="stop-color:#FFFFFF;stop-opacity:0"/>
		</linearGradient>
		<polygon opacity="0.5" fill="url(#SVGID_1_)" points="82.464,122.445 111.328,122.445 106.604,100.237 87.187,100.237 		"/>
	</g>
	<g>
		<g id="XMLID_679_">
			<rect x="32.771" y="112.847" fill-rule="evenodd" clip-rule="evenodd" fill="#333333" width="47.816" height="2.251"/>
		</g>
		<g>
			<g id="XMLID_677_">
				<rect x="43.17" y="88.946" fill-rule="evenodd" clip-rule="evenodd" fill="#FFDB76" width="7.114" height="23.9"/>
			</g>
			<g id="XMLID_455_">
				<g>
					<rect x="46.728" y="88.946" fill-rule="evenodd" clip-rule="evenodd" fill="#FFDB76" width="3.557" height="23.9"/>
				</g>
			</g>
			<g>
				<rect x="43.17" y="92.076" fill-rule="evenodd" clip-rule="evenodd" fill="#333333" width="7.114" height="0.893"/>
			</g>
			<g>
				<rect x="43.17" y="96.332" fill-rule="evenodd" clip-rule="evenodd" fill="#333333" width="7.114" height="0.894"/>
			</g>
			<g>
				<rect x="43.17" y="110.322" fill-rule="evenodd" clip-rule="evenodd" fill="#333333" width="7.114" height="0.893"/>
			</g>
			<g>
				<g>
					<path fill-rule="evenodd" clip-rule="evenodd" fill="#333333" d="M45.531,94.726c0,0.379-0.307,0.684-0.685,0.684
						c-0.378,0-0.685-0.305-0.685-0.684s0.307-0.686,0.685-0.686C45.224,94.04,45.531,94.347,45.531,94.726z"/>
				</g>
				<g opacity="0.6">
					<path fill-rule="evenodd" clip-rule="evenodd" fill="#333333" d="M47.413,94.726c0,0.379-0.307,0.684-0.685,0.684
						c-0.379,0-0.685-0.305-0.685-0.684s0.307-0.686,0.685-0.686C47.106,94.04,47.413,94.347,47.413,94.726z"/>
				</g>
				<g opacity="0.2">
					<path fill-rule="evenodd" clip-rule="evenodd" fill="#333333" d="M49.294,94.726c0,0.379-0.306,0.684-0.684,0.684
						c-0.379,0-0.686-0.305-0.686-0.684s0.307-0.686,0.686-0.686C48.988,94.04,49.294,94.347,49.294,94.726z"/>
				</g>
			</g>
		</g>
		<g>
			<g id="XMLID_449_">
				<rect x="69.206" y="80.228" fill-rule="evenodd" clip-rule="evenodd" fill="#FFDB76" width="6.38" height="32.619"/>
			</g>
			<g id="XMLID_448_">
				<g>
					<rect x="72.396" y="80.228" fill-rule="evenodd" clip-rule="evenodd" fill="#FFDB76" width="3.189" height="32.619"/>
				</g>
			</g>
			<g>
				<rect x="69.206" y="83.801" fill-rule="evenodd" clip-rule="evenodd" fill="#FFFFFF" width="6.38" height="0.952"/>
			</g>
			<g>
				<rect x="69.206" y="88.891" fill-rule="evenodd" clip-rule="evenodd" fill="#FFFFFF" width="6.38" height="0.952"/>
			</g>
			<g>
				
					<rect x="71.124" y="85.602" transform="matrix(0.7073 -0.7069 0.7069 0.7073 -40.222 76.6052)" fill-rule="evenodd" clip-rule="evenodd" fill="#FFFFFF" width="2.545" height="2.545"/>
			</g>
			<g>
				
					<rect x="71.813" y="86.292" transform="matrix(0.7071 -0.7071 0.7071 0.7071 -40.2251 76.6364)" fill-rule="evenodd" clip-rule="evenodd" fill="#333333" width="1.165" height="1.165"/>
			</g>
		</g>
		<g>
			<g id="XMLID_447_">
				
					<rect x="36.008" y="79.968" transform="matrix(0.9918 0.1277 -0.1277 0.9918 12.6116 -4.2162)" fill-rule="evenodd" clip-rule="evenodd" fill="#FFFFFF" width="6.379" height="32.619"/>
			</g>
			<g id="XMLID_444_">
				<g>
					
						<rect x="24.47" y="94.886" transform="matrix(0.1279 -0.9918 0.9918 0.1279 -60.1263 124.5799)" fill-rule="evenodd" clip-rule="evenodd" fill="#FFDB76" width="32.618" height="3.19"/>
				</g>
			</g>
			<g>
				
					<rect x="40.288" y="80.927" transform="matrix(0.1278 -0.9918 0.9918 0.1278 -47.8739 113.7936)" fill-rule="evenodd" clip-rule="evenodd" fill="#ADEBF6" width="0.953" height="6.38"/>
			</g>
			<g>
				
					<rect x="39.637" y="85.975" transform="matrix(0.1278 -0.9918 0.9918 0.1278 -53.4468 117.5546)" fill-rule="evenodd" clip-rule="evenodd" fill="#ADEBF6" width="0.952" height="6.38"/>
			</g>
			<g>
				
					<rect x="39.16" y="85.42" transform="matrix(0.7915 -0.6112 0.6112 0.7915 -44.5538 42.7862)" fill-rule="evenodd" clip-rule="evenodd" fill="#ADEBF6" width="2.545" height="2.545"/>
			</g>
			<g>
				
					<rect x="39.85" y="86.11" transform="matrix(0.7919 -0.6107 0.6107 0.7919 -44.5281 42.7366)" fill-rule="evenodd" clip-rule="evenodd" fill="#333333" width="1.165" height="1.165"/>
			</g>
		</g>
		<g>
			<g id="XMLID_443_">
				<rect x="50.265" y="86.301" fill-rule="evenodd" clip-rule="evenodd" fill="#ADEBF6" width="8.327" height="26.546"/>
			</g>
			<g id="XMLID_441_">
				<g>
					<rect x="54.513" y="86.301" fill-rule="evenodd" clip-rule="evenodd" fill="#ADEBF6" width="4.079" height="26.546"/>
				</g>
			</g>
			<g id="XMLID_437_">
				<rect x="50.265" y="105.829" fill-rule="evenodd" clip-rule="evenodd" fill="#FF916E" width="8.327" height="4.038"/>
			</g>
			<g id="XMLID_435_">
				<rect x="50.974" y="106.172" fill-rule="evenodd" clip-rule="evenodd" fill="#FFFFFF" width="6.91" height="0.728"/>
			</g>
			<g id="XMLID_434_">
				<rect x="52.026" y="107.482" fill-rule="evenodd" clip-rule="evenodd" fill="#FFFFFF" width="4.807" height="0.729"/>
			</g>
		</g>
		<g>
			<g id="XMLID_671_">
				
					<rect x="58.854" y="87.226" transform="matrix(0.9403 0.3405 -0.3405 0.9403 37.6788 -15.4345)" fill-rule="evenodd" clip-rule="evenodd" fill="#E0E0E0" width="7.933" height="24.847"/>
			</g>
			<g id="XMLID_430_">
				
					<rect x="60.61" y="92.936" transform="matrix(0.9406 0.3396 -0.3396 0.9406 37.2509 -14.9074)" fill-rule="evenodd" clip-rule="evenodd" fill="#FFFFFF" width="1.207" height="12.059"/>
			</g>
			<g id="XMLID_429_">
				
					<rect x="62.425" y="95.701" transform="matrix(0.9405 0.3399 -0.3399 0.9405 37.6205 -15.4898)" fill-rule="evenodd" clip-rule="evenodd" fill="#FFFFFF" width="1.207" height="7.9"/>
			</g>
			<g id="XMLID_421_">
				
					<rect x="55.448" y="106.634" transform="matrix(0.9403 0.3405 -0.3405 0.9403 40.6773 -13.713)" fill-rule="evenodd" clip-rule="evenodd" fill="#E0E0E0" width="7.934" height="4.842"/>
			</g>
			<g id="XMLID_410_">
				
					<rect x="62.26" y="87.824" transform="matrix(0.9402 0.3407 -0.3407 0.9402 34.7031 -17.1627)" fill-rule="evenodd" clip-rule="evenodd" fill="#E0E0E0" width="7.933" height="4.842"/>
			</g>
		</g>
	</g>
	<g>
		<g id="XMLID_409_">
			<rect x="42.573" y="74.758" fill-rule="evenodd" clip-rule="evenodd" fill="#333333" width="94.852" height="2.251"/>
		</g>
		<g>
			<g id="XMLID_406_">
				<rect x="80.729" y="49.472" fill-rule="evenodd" clip-rule="evenodd" fill="#FFDB76" width="7.525" height="25.285"/>
			</g>
			<g id="XMLID_404_">
				<g>
					<rect x="84.492" y="49.472" fill-rule="evenodd" clip-rule="evenodd" fill="#FFDB76" width="3.763" height="25.285"/>
				</g>
			</g>
			<g>
				<rect x="80.729" y="52.783" fill-rule="evenodd" clip-rule="evenodd" fill="#333333" width="7.525" height="0.944"/>
			</g>
			<g>
				<rect x="80.729" y="57.286" fill-rule="evenodd" clip-rule="evenodd" fill="#333333" width="7.525" height="0.944"/>
			</g>
			<g>
				<rect x="80.729" y="72.087" fill-rule="evenodd" clip-rule="evenodd" fill="#333333" width="7.525" height="0.944"/>
			</g>
			<g>
				<g>
					<path fill-rule="evenodd" clip-rule="evenodd" fill="#333333" d="M83.226,55.587c0,0.399-0.325,0.724-0.725,0.724
						s-0.724-0.324-0.724-0.724c0-0.401,0.324-0.725,0.724-0.725S83.226,55.186,83.226,55.587z"/>
				</g>
				<g opacity="0.6">
					<path fill-rule="evenodd" clip-rule="evenodd" fill="#333333" d="M85.215,55.587c0,0.399-0.323,0.724-0.724,0.724
						c-0.399,0-0.725-0.324-0.725-0.724c0-0.401,0.325-0.725,0.725-0.725C84.892,54.862,85.215,55.186,85.215,55.587z"/>
				</g>
				<g opacity="0.2">
					<path fill-rule="evenodd" clip-rule="evenodd" fill="#333333" d="M87.206,55.587c0,0.399-0.323,0.724-0.724,0.724
						c-0.399,0-0.724-0.324-0.724-0.724c0-0.401,0.324-0.725,0.724-0.725C86.882,54.862,87.206,55.186,87.206,55.587z"/>
				</g>
			</g>
		</g>
		<g>
			<g id="XMLID_401_">
				<rect x="108.271" y="40.25" fill-rule="evenodd" clip-rule="evenodd" fill="#FFDB76" width="6.749" height="34.507"/>
			</g>
			<g id="XMLID_399_">
				<g>
					<rect x="111.645" y="40.25" fill-rule="evenodd" clip-rule="evenodd" fill="#FFDB76" width="3.375" height="34.507"/>
				</g>
			</g>
			<g>
				<rect x="108.271" y="44.029" fill-rule="evenodd" clip-rule="evenodd" fill="#FFFFFF" width="6.749" height="1.008"/>
			</g>
			<g>
				<rect x="108.271" y="49.414" fill-rule="evenodd" clip-rule="evenodd" fill="#FFFFFF" width="6.749" height="1.008"/>
			</g>
			<g>
				
					<rect x="110.299" y="45.934" transform="matrix(0.7075 -0.7067 0.7067 0.7075 -0.7558 92.7346)" fill-rule="evenodd" clip-rule="evenodd" fill="#FFFFFF" width="2.692" height="2.692"/>
			</g>
			<g>
				
					<rect x="111.03" y="46.664" transform="matrix(0.7075 -0.7067 0.7067 0.7075 -0.7579 92.7293)" fill-rule="evenodd" clip-rule="evenodd" fill="#333333" width="1.232" height="1.232"/>
			</g>
		</g>
		<g>
			<g id="XMLID_398_">
				
					<rect x="73.151" y="39.974" transform="matrix(0.9918 0.1278 -0.1278 0.9918 7.9394 -9.3088)" fill-rule="evenodd" clip-rule="evenodd" fill="#FFFFFF" width="6.749" height="34.507"/>
			</g>
			<g id="XMLID_397_">
				<g>
					
						<rect x="60.945" y="55.756" transform="matrix(0.1279 -0.9918 0.9918 0.1279 11.223 127.6509)" fill-rule="evenodd" clip-rule="evenodd" fill="#FFDB76" width="34.507" height="3.374"/>
				</g>
			</g>
			<g>
				
					<rect x="77.679" y="40.989" transform="matrix(0.1278 -0.9918 0.9918 0.1278 24.1942 116.2382)" fill-rule="evenodd" clip-rule="evenodd" fill="#ADEBF6" width="1.008" height="6.75"/>
			</g>
			<g>
				
					<rect x="76.991" y="46.33" transform="matrix(0.1276 -0.9918 0.9918 0.1276 18.3063 120.2212)" fill-rule="evenodd" clip-rule="evenodd" fill="#ADEBF6" width="1.008" height="6.749"/>
			</g>
			<g>
				
					<rect x="76.485" y="45.742" transform="matrix(0.7918 -0.6108 0.6108 0.7918 -12.5559 57.3458)" fill-rule="evenodd" clip-rule="evenodd" fill="#ADEBF6" width="2.693" height="2.693"/>
			</g>
			<g>
				
					<rect x="77.216" y="46.473" transform="matrix(0.7918 -0.6108 0.6108 0.7918 -12.5554 57.3481)" fill-rule="evenodd" clip-rule="evenodd" fill="#333333" width="1.232" height="1.231"/>
			</g>
		</g>
		<g>
			<g id="XMLID_396_">
				
					<rect x="50.576" y="53.868" transform="matrix(0.9918 0.1277 -0.1277 0.9918 8.6322 -6.1909)" fill-rule="evenodd" clip-rule="evenodd" fill="#FFFFFF" width="4.054" height="20.729"/>
			</g>
			<g id="XMLID_386_">
				<g>
					
						<rect x="43.243" y="63.349" transform="matrix(0.1277 -0.9918 0.9918 0.1277 -17.0712 109.3154)" fill-rule="evenodd" clip-rule="evenodd" fill="#FFDB76" width="20.73" height="2.027"/>
				</g>
			</g>
			<g>
				
					<rect x="53.296" y="54.478" transform="matrix(0.1276 -0.9918 0.9918 0.1276 -9.286 102.4531)" fill-rule="evenodd" clip-rule="evenodd" fill="#ADEBF6" width="0.605" height="4.055"/>
			</g>
			<g>
				<polygon fill-rule="evenodd" clip-rule="evenodd" fill="#ADEBF6" points="55.158,60.272 51.135,59.755 51.213,59.154 
					55.234,59.672 				"/>
			</g>
			<g>
				
					<rect x="52.579" y="57.333" transform="matrix(0.7913 -0.6114 0.6114 0.7913 -24.4079 44.7779)" fill-rule="evenodd" clip-rule="evenodd" fill="#ADEBF6" width="1.618" height="1.618"/>
			</g>
			<g>
				
					<rect x="53.017" y="57.772" transform="matrix(0.7911 -0.6118 0.6118 0.7911 -24.4132 44.8085)" fill-rule="evenodd" clip-rule="evenodd" fill="#333333" width="0.74" height="0.74"/>
			</g>
		</g>
		<g>
			<g id="XMLID_385_">
				
					<rect x="56.877" y="46.659" transform="matrix(0.9918 -0.1279 0.1279 0.9918 -7.2596 8.1193)" fill-rule="evenodd" clip-rule="evenodd" fill="#ADEBF6" width="5.453" height="27.878"/>
			</g>
			<g>
				<g>
					<polygon fill-rule="evenodd" clip-rule="evenodd" fill="#ADEBF6" points="60.526,46.425 58.323,46.708 61.788,74.37 
						64.088,74.074 					"/>
				</g>
			</g>
			<g>
				
					<rect x="55.538" y="49.797" transform="matrix(0.9918 -0.1277 0.1277 0.9918 -5.9338 7.8509)" fill-rule="evenodd" clip-rule="evenodd" fill="#FFDB76" width="5.453" height="0.814"/>
			</g>
			<g>
				
					<rect x="55.894" y="52.591" transform="matrix(0.9918 -0.1277 0.1277 0.9918 -6.2877 7.9193)" fill-rule="evenodd" clip-rule="evenodd" fill="#FFDB76" width="5.453" height="0.815"/>
			</g>
			<g>
				
					<rect x="58.536" y="55.592" transform="matrix(0.6116 -0.7912 0.7912 0.6116 -21.4468 68.495)" fill-rule="evenodd" clip-rule="evenodd" fill="#333333" width="0.996" height="0.995"/>
			</g>
			<g>
				
					<rect x="58.727" y="57.265" transform="matrix(0.6115 -0.7912 0.7912 0.6115 -22.6958 69.3)" fill-rule="evenodd" clip-rule="evenodd" fill="#333333" width="0.996" height="0.995"/>
			</g>
		</g>
		<g>
			<g id="XMLID_378_">
				
					<rect x="117.034" y="46.659" transform="matrix(-0.9918 0.1279 -0.1279 -0.9918 246.2868 105.381)" fill-rule="evenodd" clip-rule="evenodd" fill="#B2B2B2" width="5.452" height="27.878"/>
			</g>
			<g>
				<polygon fill-rule="evenodd" clip-rule="evenodd" fill="#B2B2B2" points="120.683,46.425 118.48,46.708 121.944,74.37 
					124.245,74.074 				"/>
			</g>
			<g>
				
					<rect x="115.694" y="49.797" transform="matrix(0.9918 -0.1277 0.1277 0.9918 -5.4413 15.5325)" fill-rule="evenodd" clip-rule="evenodd" fill="#ADEBF6" width="5.453" height="0.814"/>
			</g>
			<g>
				
					<rect x="116.05" y="52.591" transform="matrix(0.9918 -0.1277 0.1277 0.9918 -5.7944 15.598)" fill-rule="evenodd" clip-rule="evenodd" fill="#ADEBF6" width="5.453" height="0.815"/>
			</g>
			<g>
				
					<rect x="118.693" y="55.592" transform="matrix(0.6116 -0.7912 0.7912 0.6116 1.9205 116.091)" fill-rule="evenodd" clip-rule="evenodd" fill="#333333" width="0.995" height="0.996"/>
			</g>
			<g>
				
					<rect x="118.884" y="57.265" transform="matrix(0.6109 -0.7917 0.7917 0.6109 0.7212 116.9922)" fill-rule="evenodd" clip-rule="evenodd" fill="#333333" width="0.995" height="0.995"/>
			</g>
		</g>
		<g>
			<g id="XMLID_377_">
				<rect x="88.235" y="46.675" fill-rule="evenodd" clip-rule="evenodd" fill="#ADEBF6" width="8.809" height="28.082"/>
			</g>
			<g id="XMLID_375_">
				<g>
					<rect x="92.728" y="46.675" fill-rule="evenodd" clip-rule="evenodd" fill="#ADEBF6" width="4.315" height="28.082"/>
				</g>
			</g>
			<g id="XMLID_374_">
				<rect x="88.235" y="67.331" fill-rule="evenodd" clip-rule="evenodd" fill="#FF916E" width="8.809" height="4.273"/>
			</g>
			<g id="XMLID_373_">
				<rect x="88.984" y="67.695" fill-rule="evenodd" clip-rule="evenodd" fill="#FFFFFF" width="7.311" height="0.77"/>
			</g>
			<g id="XMLID_368_">
				<rect x="90.097" y="69.083" fill-rule="evenodd" clip-rule="evenodd" fill="#FFFFFF" width="5.085" height="0.771"/>
			</g>
		</g>
		<g>
			<g id="XMLID_366_">
				<rect x="63.746" y="50.635" fill-rule="evenodd" clip-rule="evenodd" fill="#E0E0E0" width="6.947" height="24.122"/>
			</g>
			<g id="XMLID_360_">
				<rect x="67.29" y="50.635" fill-rule="evenodd" clip-rule="evenodd" fill="#B2B2B2" width="3.403" height="24.122"/>
			</g>
			<g id="XMLID_358_">
				<rect x="63.746" y="53.751" fill-rule="evenodd" clip-rule="evenodd" fill="#FFDB76" width="6.947" height="6.966"/>
			</g>
			<g>
				<g>
					<path fill-rule="evenodd" clip-rule="evenodd" fill="#333333" d="M65.953,59.395c0,0.399-0.324,0.725-0.724,0.725
						s-0.725-0.325-0.725-0.725c0-0.4,0.325-0.725,0.725-0.725S65.953,58.994,65.953,59.395z"/>
				</g>
				<g opacity="0.6">
					<path fill-rule="evenodd" clip-rule="evenodd" fill="#333333" d="M67.943,59.395c0,0.399-0.323,0.725-0.725,0.725
						c-0.399,0-0.724-0.325-0.724-0.725c0-0.4,0.324-0.725,0.724-0.725C67.62,58.67,67.943,58.994,67.943,59.395z"/>
				</g>
				<g opacity="0.2">
					<path fill-rule="evenodd" clip-rule="evenodd" fill="#333333" d="M69.933,59.395c0,0.399-0.323,0.725-0.724,0.725
						s-0.724-0.325-0.724-0.725c0-0.4,0.323-0.725,0.724-0.725S69.933,58.994,69.933,59.395z"/>
				</g>
			</g>
			<g id="XMLID_357_">
				<rect x="64.337" y="54.064" fill-rule="evenodd" clip-rule="evenodd" fill="#FFFFFF" width="5.765" height="0.66"/>
			</g>
			<g id="XMLID_356_">
				<rect x="65.214" y="55.256" fill-rule="evenodd" clip-rule="evenodd" fill="#FFFFFF" width="4.01" height="0.661"/>
			</g>
		</g>
		<g>
			<g id="XMLID_355_">
				<rect x="124.245" y="50.635" fill-rule="evenodd" clip-rule="evenodd" fill="#E0E0E0" width="6.947" height="24.122"/>
			</g>
			<g id="XMLID_354_">
				<rect x="127.789" y="50.635" fill-rule="evenodd" clip-rule="evenodd" fill="#B2B2B2" width="3.403" height="24.122"/>
			</g>
			<g id="XMLID_353_">
				<rect x="124.245" y="53.751" fill-rule="evenodd" clip-rule="evenodd" fill="#FFDB76" width="6.947" height="6.966"/>
			</g>
			<g>
				<g>
					<circle fill-rule="evenodd" clip-rule="evenodd" fill="#333333" cx="125.728" cy="59.395" r="0.725"/>
				</g>
				<g opacity="0.6">
					<circle fill-rule="evenodd" clip-rule="evenodd" fill="#333333" cx="127.718" cy="59.395" r="0.725"/>
				</g>
				<g opacity="0.2">
					<path fill-rule="evenodd" clip-rule="evenodd" fill="#333333" d="M130.433,59.395c0,0.399-0.323,0.725-0.725,0.725
						c-0.399,0-0.724-0.325-0.724-0.725c0-0.4,0.324-0.725,0.724-0.725C130.11,58.67,130.433,58.994,130.433,59.395z"/>
				</g>
			</g>
			<g id="XMLID_352_">
				<rect x="124.836" y="54.064" fill-rule="evenodd" clip-rule="evenodd" fill="#FFFFFF" width="5.765" height="0.66"/>
			</g>
			<g id="XMLID_351_">
				<rect x="125.713" y="55.256" fill-rule="evenodd" clip-rule="evenodd" fill="#FFFFFF" width="4.01" height="0.661"/>
			</g>
		</g>
		<g>
			<g id="XMLID_350_">
				
					<rect x="97.32" y="47.654" transform="matrix(0.9402 0.3406 -0.3406 0.9402 26.7729 -30.9379)" fill-rule="evenodd" clip-rule="evenodd" fill="#E0E0E0" width="8.393" height="26.285"/>
			</g>
			<g id="XMLID_349_">
				
					<rect x="99.177" y="53.694" transform="matrix(0.9406 0.3396 -0.3396 0.9406 26.3282 -30.3238)" fill-rule="evenodd" clip-rule="evenodd" fill="#FFFFFF" width="1.277" height="12.756"/>
			</g>
			<g id="XMLID_348_">
				
					<rect x="101.098" y="56.618" transform="matrix(0.9403 0.3402 -0.3402 0.9403 26.7533 -30.9863)" fill-rule="evenodd" clip-rule="evenodd" fill="#FFFFFF" width="1.277" height="8.357"/>
			</g>
			<g id="XMLID_347_">
				
					<rect x="93.716" y="68.185" transform="matrix(0.9402 0.3406 -0.3406 0.9402 29.9459 -29.116)" fill-rule="evenodd" clip-rule="evenodd" fill="#E0E0E0" width="8.393" height="5.122"/>
			</g>
			<g id="XMLID_343_">
				
					<rect x="100.924" y="48.286" transform="matrix(0.9402 0.3406 -0.3406 0.9402 23.5999 -32.7598)" fill-rule="evenodd" clip-rule="evenodd" fill="#E0E0E0" width="8.393" height="5.121"/>
			</g>
		</g>
	</g>
	<g>
		<g id="XMLID_659_">
			<path fill-rule="evenodd" clip-rule="evenodd" fill="#333333" d="M31.472,134.929h117.054c1.002,0,1.822,0.818,1.822,1.821l0,0
				c0,1.002-0.82,1.821-1.822,1.821H31.472c-1.002,0-1.821-0.819-1.821-1.821l0,0C29.651,135.747,30.47,134.929,31.472,134.929z"/>
		</g>
	</g>
	<g id="XMLID_1471_">
		<g id="XMLID_1475_">
			<g id="XMLID_1476_">
				<path fill="#FFFFFF" d="M118.506,127.854c-2.696,0-9.93,0.034-13.563-1.847c-8.003-4.142-17.122,0.776-17.204,6.982h27.797
					L118.506,127.854z"/>
			</g>
		</g>
		<g id="XMLID_1473_">
			<g id="XMLID_1474_">
				<path fill="#FFFFFF" d="M61.493,127.854c2.696,0,9.93,0.034,13.563-1.847c8.004-4.142,17.122,0.776,17.204,6.982H64.463
					L61.493,127.854z"/>
			</g>
		</g>
		<g id="XMLID_1472_">
			<path fill="#333333" d="M116.735,132.01v2.393h-24.33c-0.121,0.357-0.459,0.615-0.856,0.615h-3.455
				c-0.398,0-0.735-0.258-0.857-0.615h-24.33v-2.393h24.287c-0.003,0.024-0.005,0.05-0.005,0.075c0,0.498,0.407,0.904,0.905,0.904
				h3.455c0.499,0,0.904-0.406,0.904-0.904c0-0.025-0.001-0.051-0.005-0.075H116.735z"/>
		</g>
	</g>
</g>
</svg>
